<svg height="512pt" viewBox="-70 0 512 512.001" width="512pt" xmlns="http://www.w3.org/2000/svg"><path d="m372 186.347656c0-102.753906-83.4375-186.347656-186-186.347656-102.558594 0-186 83.59375-186 186.347656 0 72.628906 41.6875 135.683594 102.347656 166.417969v51.328125c0 20.617188 16.753906 37.390625 37.347656 37.390625h2.097657v26.394531c0 24.328125 19.792969 44.121094 44.125 44.121094h.167969c24.332031 0 44.125-19.792969 44.125-44.121094v-26.394531h2.097656c20.59375 0 37.34375-16.769531 37.34375-37.390625v-51.328125c60.660156-30.734375 102.347656-93.789063 102.347656-166.417969zm-171.792969 281.527344c0 7.789062-6.335937 14.125-14.121093 14.125h-.171876c-7.789062 0-14.125-6.335938-14.125-14.125v-26.390625h28.417969zm39.445313-63.78125c0 4.074219-3.296875 7.390625-7.347656 7.390625h-92.609376c-4.050781 0-7.347656-3.3125-7.347656-7.390625v-39.300781c16.996094 5.136719 35.007813 7.902343 53.652344 7.902343s36.65625-2.761718 53.652344-7.902343zm-53.652344-61.398438c-86.019531 0-156-70.140624-156-156.347656 0-86.210937 69.980469-156.347656 156-156.347656s156 70.136719 156 156.347656c0 86.210938-69.980469 156.347656-156 156.347656zm0 0"/><path d="m186 59.296875c-69.929688 0-126.824219 56.992187-126.824219 127.050781 0 8.285156 6.714844 15 15 15 8.28125 0 15-6.714844 15-15 0-53.515625 43.433594-97.050781 96.824219-97.050781s96.824219 43.535156 96.824219 97.050781c0 8.285156 6.71875 15 15 15 8.285156 0 15-6.714844 15-15 0-70.058594-56.890625-127.050781-126.824219-127.050781zm0 0"/><path d="m201 195.902344v-60.472656c0-8.285157-6.714844-15-15-15s-15 6.714843-15 15v60.472656c-19.867188 6.371094-34.289062 25.039062-34.289062 47.019531 0 27.21875 22.109374 49.359375 49.289062 49.359375s49.289062-22.140625 49.289062-49.359375c0-21.980469-14.421874-40.652344-34.289062-47.019531zm-15 66.378906c-10.636719 0-19.289062-8.683594-19.289062-19.359375 0-10.671875 8.652343-19.355469 19.289062-19.355469s19.289062 8.683594 19.289062 19.355469c0 10.675781-8.652343 19.359375-19.289062 19.359375zm0 0"/></svg>