<svg width="16" height="17" viewBox="0 0 16 17" fill="none" xmlns="http://www.w3.org/2000/svg">
<g clip-path="url(#clip0_3353_18184)">
<path fill-rule="evenodd" clip-rule="evenodd" d="M8.00033 2.49935C4.68662 2.49935 2.00033 5.18564 2.00033 8.49935C2.00033 11.8131 4.68662 14.4993 8.00033 14.4993C11.314 14.4993 14.0003 11.8131 14.0003 8.49935C14.0003 5.18564 11.314 2.49935 8.00033 2.49935ZM0.666992 8.49935C0.666992 4.44926 3.95024 1.16602 8.00033 1.16602C12.0504 1.16602 15.3337 4.44926 15.3337 8.49935C15.3337 12.5494 12.0504 15.8327 8.00033 15.8327C3.95024 15.8327 0.666992 12.5494 0.666992 8.49935Z" fill="#77B300"/>
<path fill-rule="evenodd" clip-rule="evenodd" d="M7.99967 7.83398C8.36786 7.83398 8.66634 8.13246 8.66634 8.50065V11.1673C8.66634 11.5355 8.36786 11.834 7.99967 11.834C7.63148 11.834 7.33301 11.5355 7.33301 11.1673V8.50065C7.33301 8.13246 7.63148 7.83398 7.99967 7.83398Z" fill="#77B300"/>
<path fill-rule="evenodd" clip-rule="evenodd" d="M7.33301 5.83268C7.33301 5.46449 7.63148 5.16602 7.99967 5.16602H8.00634C8.37453 5.16602 8.67301 5.46449 8.67301 5.83268C8.67301 6.20087 8.37453 6.49935 8.00634 6.49935H7.99967C7.63148 6.49935 7.33301 6.20087 7.33301 5.83268Z" fill="#77B300"/>
</g>
<defs>
<clipPath id="clip0_3353_18184">
<rect width="16" height="16" fill="white" transform="translate(0 0.5)"/>
</clipPath>
</defs>
</svg>
