<?xml version="1.0" encoding="UTF-8" standalone="no"?>
<!DOCTYPE svg PUBLIC "-//W3C//DTD SVG 1.1//EN" "http://www.w3.org/Graphics/SVG/1.1/DTD/svg11.dtd">
<svg width="100%" height="100%" viewBox="0 0 24 24" version="1.1" xmlns="http://www.w3.org/2000/svg" xmlns:xlink="http://www.w3.org/1999/xlink" xml:space="preserve" xmlns:serif="http://www.serif.com/" style="fill-rule:evenodd;clip-rule:evenodd;stroke-linejoin:round;stroke-miterlimit:2;">
    <g transform="matrix(0.498986,0,0,0.498986,12.2495,10.4732)">
        <circle cx="13.528" cy="11.276" r="4.008"/>
    </g>
    <g transform="matrix(0.748479,0,0,0.748479,1.87424,3.55984)">
        <circle cx="13.528" cy="11.276" r="4.008"/>
    </g>
    <g transform="matrix(0.498986,0,0,0.498986,5.2495,-1.61864)">
        <circle cx="13.528" cy="11.276" r="4.008"/>
    </g>
    <g transform="matrix(0.498986,0,0,0.498986,5.2495,14.3326)">
        <circle cx="13.528" cy="11.276" r="4.008"/>
    </g>
    <g transform="matrix(0.498986,0,0,0.498986,12.2495,2.47323)">
        <circle cx="13.528" cy="11.276" r="4.008"/>
    </g>
    <g transform="matrix(0.498986,0,0,0.498986,-1.7505,10.4732)">
        <circle cx="13.528" cy="11.276" r="4.008"/>
    </g>
    <g transform="matrix(0.498986,0,0,0.498986,-1.7505,2.47323)">
        <circle cx="13.528" cy="11.276" r="4.008"/>
    </g>
    <g transform="matrix(2.28012,0.726477,0.773523,1.43921,-14.7828,-8.09947)">
        <path d="M5.351,9.12L10.522,12.193C10.696,12.297 11.067,11.996 11.349,11.521C11.631,11.047 11.718,10.577 11.543,10.474L6.373,7.401C6.198,7.297 5.828,7.598 5.546,8.072C5.264,8.547 5.176,9.016 5.351,9.12Z"/>
    </g>
    <g transform="matrix(-0.510914,-2.33788,0.859632,-1.3895,7.89417,45.361)">
        <path d="M5.351,9.12L10.522,12.193C10.696,12.297 11.067,11.996 11.349,11.521C11.631,11.047 11.718,10.577 11.543,10.474L6.373,7.401C6.198,7.297 5.828,7.598 5.546,8.072C5.264,8.547 5.176,9.016 5.351,9.12Z"/>
    </g>
    <g transform="matrix(-2.28012,0.726477,-0.773523,1.43921,38.8943,-8.09947)">
        <path d="M6.373,7.401L11.543,10.474C11.718,10.577 11.631,11.047 11.349,11.521C11.067,11.996 10.696,12.297 10.522,12.193L5.351,9.12C5.176,9.016 5.264,8.547 5.546,8.072C5.828,7.598 6.198,7.297 6.373,7.401Z"/>
    </g>
</svg>
