<?xml version="1.0" encoding="UTF-8" standalone="no"?>
<!DOCTYPE svg PUBLIC "-//W3C//DTD SVG 1.1//EN" "http://www.w3.org/Graphics/SVG/1.1/DTD/svg11.dtd">
<svg width="100%" height="100%" viewBox="0 0 24 24" version="1.1" xmlns="http://www.w3.org/2000/svg" xmlns:xlink="http://www.w3.org/1999/xlink" xml:space="preserve" xmlns:serif="http://www.serif.com/" style="fill-rule:evenodd;clip-rule:evenodd;stroke-linejoin:round;stroke-miterlimit:2;">
    <path d="M20.436,17.492C20.072,17.867 19.563,18.1 19,18.1C17.912,18.1 17.025,17.229 17.001,16.146L13.875,14.342C13.615,14.55 13.32,14.716 13,14.829L13,18.227C13.598,18.573 14,19.22 14,19.959C14,21.063 13.104,21.959 12,21.959C10.896,21.959 10,21.063 10,19.959C10,19.22 10.402,18.573 11,18.227L11,14.829C10.699,14.723 10.421,14.57 10.173,14.379L6.997,16.212C6.939,17.264 6.066,18.1 5,18.1C3.896,18.1 3,17.204 3,16.1C3,14.996 3.896,14.1 5,14.1C5.403,14.1 5.778,14.219 6.093,14.425L9.082,12.699C9.028,12.475 9,12.241 9,12C9,11.846 9.012,11.695 9.034,11.547L6.032,9.813C5.73,9.995 5.377,10.1 5,10.1C3.896,10.1 3,9.204 3,8.1C3,6.996 3.896,6.1 5,6.1C6.091,6.1 6.98,6.976 7,8.063L9.979,9.783C10.272,9.516 10.619,9.306 11,9.171L11,8.056L14.999,12.056C14.996,12.257 14.972,12.453 14.931,12.642L16.48,13.536L20.436,17.492ZM15.034,9.262L17,8.127C17,8.118 17,8.109 17,8.1C17,6.996 17.896,6.1 19,6.1C20.104,6.1 21,6.996 21,8.1C21,9.204 20.104,10.1 19,10.1C18.646,10.1 18.313,10.008 18.024,9.846L16.498,10.727L15.034,9.262ZM10.014,4.242C10.005,4.165 10,4.087 10,4.008C10,2.904 10.896,2.008 12,2.008C13.104,2.008 14,2.904 14,4.008C14,4.748 13.598,5.394 13,5.74L13,7.228L10.014,4.242Z"/>
    <g transform="matrix(0.698027,0.698027,-0.543588,0.543588,10.0935,1.03437)">
        <rect x="-0.805" y="5.626" width="20.26" height="2.602"/>
    </g>
</svg>
