<?xml version="1.0" encoding="UTF-8" standalone="no"?>
<!-- Created with Inkscape (http://www.inkscape.org/) -->

<svg
   version="1.1"
   id="svg1"
   width="512"
   height="512"
   viewBox="0 0 512 512"
   sodipodi:docname="voice-recognition.svg"
   inkscape:version="1.3.2 (091e20e, 2023-11-25, custom)"
   xmlns:inkscape="http://www.inkscape.org/namespaces/inkscape"
   xmlns:sodipodi="http://sodipodi.sourceforge.net/DTD/sodipodi-0.dtd"
   xmlns="http://www.w3.org/2000/svg"
   xmlns:svg="http://www.w3.org/2000/svg">
  <defs
     id="defs1" />
  <sodipodi:namedview
     id="namedview1"
     pagecolor="#ffffff"
     bordercolor="#000000"
     borderopacity="0.25"
     inkscape:showpageshadow="2"
     inkscape:pageopacity="0.0"
     inkscape:pagecheckerboard="0"
     inkscape:deskcolor="#d1d1d1"
     inkscape:zoom="2.9492188"
     inkscape:cx="305.67417"
     inkscape:cy="152.92185"
     inkscape:window-width="3072"
     inkscape:window-height="1810"
     inkscape:window-x="-12"
     inkscape:window-y="-12"
     inkscape:window-maximized="1"
     inkscape:current-layer="g1" />
  <g
     inkscape:groupmode="layer"
     inkscape:label="Image"
     id="g1">
    <path
       style="fill:#000000"
       d="M 56.447949,471.75 C 58.163825,458.96728 66.124798,365.20503 66.106,358 66.061947,341.11479 60.929553,329.72992 46.131768,313.69242 -26.645273,234.81834 -12.199769,113.58432 79.011623,59.718834 129.49645,29.904688 179.66692,25.996679 233.16361,51.278071 289.43645,77.871413 322.81215,125.84421 324.89642,184 l 0.69887,19.5 18.79789,43.5 c 10.33885,23.925 19.19888,44.52593 19.68896,45.77985 0.73573,1.88244 0.50119,2.41942 -1.34554,3.08057 -1.23013,0.4404 -12.00033,4.29598 -23.93378,8.56795 l -21.69718,7.76722 -0.30282,30.65221 c -0.3446,34.88147 -1.14022,38.3317 -11.14664,48.33812 -9.16001,9.16001 -12.99388,10.26495 -36.90618,10.63648 L 248,402.14481 V 439.0724 476 H 151.93873 55.877454 Z m 161.789881,-62 0.26217,-37.25 31.95079,-0.26432 c 31.18123,-0.25795 32.00617,-0.31635 34.25,-2.42431 2.29921,-2.16 2.29921,-2.16 2.29921,-40.3787 0,-29.65347 0.28014,-38.32577 1.25,-38.69648 0.6875,-0.26278 9.125,-3.28716 18.75,-6.72083 9.625,-3.43368 17.60408,-6.3334 17.73129,-6.44383 0.12721,-0.11043 -6.38278,-15.4717 -14.46665,-34.13615 L 295.5667,209.5 294.93223,188 c -0.85588,-29.0027 -4.42577,-41.0158 -18.4544,-62.10112 C 237.72807,67.657179 157.60972,48.441298 98.5,83.212019 20.880161,128.87114 6.714969,227.40169 68.246281,293.6515 96.314916,323.87256 98.92671,335.97096 92.5,406 90.575,426.97588 89,444.78192 89,445.56898 89,446.79555 98.213561,447 153.48783,447 h 64.48783 z m 234.79527,27.78321 -10.37344,-10.40886 5.7823,-6.77351 C 493.05855,368.08603 493.13832,293.60941 448.63298,242 c -6.87277,-7.96982 -7.47349,-5.70149 4.73096,-17.8644 l 10.36394,-10.32867 7.23264,8.34653 c 53.4967,61.73571 54.56135,152.42999 2.52207,214.84654 -10.5061,12.60114 -8.4754,12.5482 -20.44949,0.53321 z m -42.79648,-42.79578 -10.22764,-10.26257 4.54417,-5.48743 c 22.47929,-27.14545 22.41205,-70.23951 -0.14951,-95.82004 l -4.70326,-5.3326 10.38194,-10.4174 C 415.79239,261.68783 420.77812,257 421.16173,257 c 2.09886,0 14.59502,17.74144 19.36959,27.5 14.84422,30.33956 14.85331,62.88735 0.026,93 -4.85768,9.8654 -17.25169,27.5 -19.32765,27.5 -0.42095,0 -5.36781,-4.61816 -10.99302,-10.26257 z M 367.82711,352.25728 C 357.17382,341.5 357.17382,341.5 359.1751,338.8934 c 2.72549,-3.54986 2.76716,-10.63121 0.0893,-15.16988 -3.09295,-5.24216 16.97942,-25.72201 21.2646,-21.69629 11.89309,11.17297 13.89602,37.72016 3.98377,52.80148 -6.11973,9.31106 -4.70157,9.52961 -16.68564,-2.57143 z"
       id="path1"
       sodipodi:nodetypes="sssssscsssscssscccccsccssssssscsssssssccscssscsssccsscsssssscsssssss" />
  </g>
</svg>
